<svg xmlns="http://www.w3.org/2000/svg" data-name="Layer 1" viewBox="0 0 1200 1000"><g data-name="Online Test"><path fill="#199180" d="M435.202 347.532c-13.658-58.143-47.412-99.117-90.727-118.628s-96.385-17.56-148.87 10.926c27.315 116.092 134.627 164.284 239.597 107.702Z"/><path fill="#fff" d="m421.934 342.264-208.38-94.044c-.194 0-.194-.195-.194-.39s.195-.195.39-.195l208.77 93.263a.743.743 0 1 1-.586 1.366Z"/><path fill="#fff" d="M301.94 287.633a63.66 63.66 0 0 0-17.95 3.512 39.568 39.568 0 0 0-8.194 3.902 50.777 50.777 0 0 0-7.415 5.268 1.244 1.244 0 0 1-1.17 0c-.39-.195-.196-.78 0-1.17a68.397 68.397 0 0 1 7.804-5.269 47.53 47.53 0 0 1 8.585-3.707 57.897 57.897 0 0 1 18.145-2.926c.195.195.195.195.195.39ZM365.157 316.12a62.4 62.4 0 0 1-9.951-15.61 46.39 46.39 0 0 1-2.927-8.78 47.26 47.26 0 0 1-1.366-9.17.78.78 0 1 1 1.561 0 35.16 35.16 0 0 0 .976 8.975 49.604 49.604 0 0 0 2.536 8.78 75.719 75.719 0 0 0 9.17 15.804c.196-.195.196 0 0 0ZM387.4 326.07a63.66 63.66 0 0 0-17.951 3.512 39.568 39.568 0 0 0-8.195 3.902 50.776 50.776 0 0 0-7.414 5.268.828.828 0 0 1-1.17-1.17 68.4 68.4 0 0 1 7.804-5.269 47.53 47.53 0 0 1 8.585-3.707 57.898 57.898 0 0 1 18.145-2.926c.195.195.195.195.195.39ZM269.552 273.195a62.4 62.4 0 0 1-9.95-15.61 46.391 46.391 0 0 1-2.927-8.78 47.26 47.26 0 0 1-1.366-9.17.78.78 0 1 1 1.56 0 35.16 35.16 0 0 0 .976 8.975 49.605 49.605 0 0 0 2.537 8.78 75.716 75.716 0 0 0 9.17 15.804Z"/><path fill="#2ab19f" d="M435.202 347.532c20.681-55.997 15.218-108.872-10.341-149.065s-70.826-67.899-130.14-73.167c-41.168 111.994 21.658 211.5 140.48 222.232Z"/><path fill="#fff" d="M427.007 335.825 305.062 142.47c0-.195 0-.39.195-.39s.39 0 .39.195L428.374 335.24a.92.92 0 0 1-.195 1.17c-.586-.194-.976-.194-1.171-.585Z"/><path fill="#fff" d="M356.962 224.026a58.468 58.468 0 0 0-16.975-6.828 47.581 47.581 0 0 0-8.975-1.366 45.448 45.448 0 0 0-8.975.39.78.78 0 0 1 0-1.56 50.059 50.059 0 0 1 9.365 0 36.328 36.328 0 0 1 9.17 1.755 54.353 54.353 0 0 1 16.39 7.61c.195-.196.195 0 0 0ZM394.033 282.755a52.68 52.68 0 0 1 .39-18.34 67.265 67.265 0 0 1 2.342-8.976 47.627 47.627 0 0 1 4.097-8.39c.195-.39.78-.585.976-.195s.585.78.195.976a63.075 63.075 0 0 0-4.293 8 57.753 57.753 0 0 0-2.731 8.78 63.099 63.099 0 0 0-.976 18.145ZM407.106 303.242a58.468 58.468 0 0 0-16.975-6.83 47.581 47.581 0 0 0-8.975-1.365 45.449 45.449 0 0 0-8.975.39.78.78 0 0 1 0-1.56 50.059 50.059 0 0 1 9.365 0 36.329 36.329 0 0 1 9.17 1.755 50.026 50.026 0 0 1 16.39 7.61ZM338.036 194.174a52.68 52.68 0 0 1 .39-18.34 67.264 67.264 0 0 1 2.342-8.975 47.626 47.626 0 0 1 4.097-8.39c.195-.39.78-.585.976-.195.39.195.585.78.195.975a63.075 63.075 0 0 0-4.293 8 57.755 57.755 0 0 0-2.731 8.78 63.1 63.1 0 0 0-.976 18.145q.293 0 0 0Z"/><path fill="#48dbc5" d="M435.006 347.337c-46.24-37.657-97.946-49.558-144.382-38.632s-87.02 45.07-111.409 99.507c92.678 75.508 207.209 47.997 255.791-60.875Z"/><path fill="#fff" d="m421.154 351.434-222.428 52.68c-.195 0-.39 0-.39-.195s0-.39.195-.39l222.232-53.46c.39-.196.78.195.976.585.195.195 0 .585-.585.78Z"/><path fill="#fff" d="M292.77 381.481a62.027 62.027 0 0 0-12.097 13.658 44.259 44.259 0 0 0-4.097 8 43.434 43.434 0 0 0-2.537 8.585.746.746 0 0 1-.975.585c-.39-.195-.78-.585-.585-.975a42.186 42.186 0 0 1 2.926-8.78 52.88 52.88 0 0 1 4.488-8 58.526 58.526 0 0 1 12.877-13.073c.195-.195 0-.195 0 0ZM360.279 365.287a61.686 61.686 0 0 1-17.365-6.243 66.704 66.704 0 0 1-7.805-5.073 35.597 35.597 0 0 1-6.633-6.634.828.828 0 0 1 1.17-1.17 50.254 50.254 0 0 0 6.244 6.633 50.775 50.775 0 0 0 7.414 5.268 58.468 58.468 0 0 0 16.975 6.829c.195.195.195.195 0 .39ZM384.082 359.629a62.028 62.028 0 0 0-12.097 13.658 44.26 44.26 0 0 0-4.097 8 43.433 43.433 0 0 0-2.536 8.584.804.804 0 1 1-1.561-.39 42.185 42.185 0 0 1 2.926-8.78 52.878 52.878 0 0 1 4.488-8 54.598 54.598 0 0 1 12.877-13.072ZM258.43 389.676a61.686 61.686 0 0 1-17.364-6.243 66.702 66.702 0 0 1-7.805-5.073 35.597 35.597 0 0 1-6.634-6.634.828.828 0 0 1 1.171-1.17 50.254 50.254 0 0 0 6.244 6.633 50.776 50.776 0 0 0 7.414 5.268 58.468 58.468 0 0 0 16.975 6.829c0 .195.195.195 0 .39Z"/><path fill="#fa5814" d="M476.175 733.267v37.852a21.817 21.817 0 0 1-21.852 21.853H123.609a5.038 5.038 0 0 1-5.073-5.073 5.33 5.33 0 0 1 1.56-3.707 4.996 4.996 0 0 1 3.708-1.561h177.551a11.533 11.533 0 0 0 11.512-11.512v-37.851a11.533 11.533 0 0 0-11.512-11.512H123.608a5.038 5.038 0 0 1-5.072-5.073 5.33 5.33 0 0 1 1.56-3.707 4.996 4.996 0 0 1 3.708-1.56h330.714a21.776 21.776 0 0 1 21.657 21.851Z"/><path fill="#f0f4f9" d="M301.355 721.756H130.437c6.634 21.072 7.024 41.364 0 61.07h170.918a11.533 11.533 0 0 0 11.512-11.512v-37.851a11.454 11.454 0 0 0-11.512-11.707Z"/><path fill="#dde3ea" d="M144.68 736.975h153.944a1.539 1.539 0 0 0 1.56-1.561 1.679 1.679 0 0 0-1.56-1.561H144.68a1.539 1.539 0 0 0-1.561 1.56 1.679 1.679 0 0 0 1.56 1.562ZM144.68 748.291h153.944a1.539 1.539 0 0 0 1.56-1.56 1.679 1.679 0 0 0-1.56-1.562H144.68a1.539 1.539 0 0 0-1.561 1.561 1.679 1.679 0 0 0 1.56 1.561ZM144.68 759.608h153.944a1.539 1.539 0 0 0 1.56-1.561 1.679 1.679 0 0 0-1.56-1.561H144.68a1.539 1.539 0 0 0-1.561 1.56 1.679 1.679 0 0 0 1.56 1.562ZM144.68 770.729h153.944a1.539 1.539 0 0 0 1.56-1.56 1.679 1.679 0 0 0-1.56-1.562H144.68a1.539 1.539 0 0 0-1.561 1.561 1.679 1.679 0 0 0 1.56 1.56Z"/><path fill="#3d84f2" d="M100 833.75a40.886 40.886 0 0 0 40.778 40.778h311.593a5.142 5.142 0 0 0 5.268-4.682 4.792 4.792 0 0 0-1.56-4.098 4.996 4.996 0 0 0-3.708-1.56h-158.82a30.685 30.685 0 0 1-30.633-30.633 30.685 30.685 0 0 1 30.633-30.633h158.625a5.142 5.142 0 0 0 5.268-4.682 4.792 4.792 0 0 0-1.56-4.098 4.996 4.996 0 0 0-3.708-1.56H140.778c-22.438.39-40.778 18.73-40.778 41.168Z"/><path fill="#f0f4f9" d="M293.746 803.313h151.992c-6.634 21.072-7.024 41.363 0 61.07H293.746a30.685 30.685 0 0 1-30.633-30.633 30.77 30.77 0 0 1 30.633-30.437Z"/><path fill="#dde3ea" d="M431.494 818.531H277.551a1.539 1.539 0 0 1-1.56-1.56 1.679 1.679 0 0 1 1.56-1.561h153.943a1.539 1.539 0 0 1 1.561 1.56 1.679 1.679 0 0 1-1.56 1.561ZM431.494 829.848H277.551a1.539 1.539 0 0 1-1.56-1.561 1.679 1.679 0 0 1 1.56-1.561h153.943a1.539 1.539 0 0 1 1.561 1.56 1.679 1.679 0 0 1-1.56 1.562ZM431.494 841.164H277.551a1.539 1.539 0 0 1-1.56-1.56 1.679 1.679 0 0 1 1.56-1.562h153.943a1.539 1.539 0 0 1 1.561 1.561 1.679 1.679 0 0 1-1.56 1.561ZM431.494 852.48H277.551a1.539 1.539 0 0 1-1.56-1.56 1.679 1.679 0 0 1 1.56-1.561h153.943a1.539 1.539 0 0 1 1.561 1.56 1.679 1.679 0 0 1-1.56 1.562Z"/><path fill="#5b6f8b" fill-rule="evenodd" d="M835.96 169.98v659.868a44.8 44.8 0 0 1-44.68 44.68H455.493a44.8 44.8 0 0 1-44.68-44.68V169.98a44.8 44.8 0 0 1 44.68-44.681h335.592a44.84 44.84 0 0 1 44.876 44.68Z"/><path fill="#fff" fill-rule="evenodd" d="M455.493 862.822a33.058 33.058 0 0 1-32.974-32.974V169.98a33.058 33.058 0 0 1 32.974-32.974h335.592a33.058 33.058 0 0 1 32.974 32.974v659.867a33.058 33.058 0 0 1-32.974 32.974H455.493Z"/><path fill="#5b6f8b" fill-rule="evenodd" d="M657.043 170.761a4.683 4.683 0 0 0 0-9.365h-87.215a4.683 4.683 0 0 0 0 9.365Zm15.804-9.56a4.683 4.683 0 0 0 0 9.365h4.098a4.683 4.683 0 0 0 0-9.365ZM801.426 243.342a8.002 8.002 0 0 1-7.805 7.805H452.957a7.805 7.805 0 0 1 0-15.609H793.62a7.827 7.827 0 0 1 7.805 7.804Z"/><path fill="#f0f4f9" fill-rule="evenodd" d="M848.643 268.902V833.75H531.196a45.507 45.507 0 0 1-45.46-45.461V278.072a34.64 34.64 0 0 0-34.73-34.73h372.077a25.522 25.522 0 0 1 25.56 25.56Z"/><path fill="#dde3ea" fill-rule="evenodd" d="M855.862 833.75H531.587c35.705 0 35.705-53.656 0-53.656h324.275c35.705 0 35.705 53.656 0 53.656Z"/><path fill="#fff" fill-rule="evenodd" d="M788.939 277.877v47.217a7.827 7.827 0 0 1-7.805 7.805H573.145a7.827 7.827 0 0 1-7.804-7.805v-47.217a7.827 7.827 0 0 1 7.804-7.804h207.99a7.827 7.827 0 0 1 7.804 7.804Z"/><path fill="#fa5814" d="M625.24 320.216a1.49 1.49 0 0 1-.39-.975v-29.072h-9.756c-.39 0-.585-.195-.975-.39a1.49 1.49 0 0 1-.39-.976v-3.902a1.334 1.334 0 0 1 1.365-1.366h26.926a1.334 1.334 0 0 1 1.366 1.366v3.902a1.334 1.334 0 0 1-1.366 1.366h-9.756v29.072c0 .39-.195.585-.39.975a1.49 1.49 0 0 1-.976.39h-4.877c-.39 0-.586 0-.78-.39ZM648.849 320.216a1.49 1.49 0 0 1-.39-.975V284.9a1.334 1.334 0 0 1 1.365-1.366h23.219a1.334 1.334 0 0 1 1.365 1.366v3.512a1.334 1.334 0 0 1-1.365 1.366h-17.365v9.17h16.194a1.334 1.334 0 0 1 1.366 1.366v3.317a1.334 1.334 0 0 1-1.366 1.366h-16.194v9.56h17.755a1.334 1.334 0 0 1 1.366 1.366v3.512a1.334 1.334 0 0 1-1.366 1.366h-23.609a2.598 2.598 0 0 1-.975-.586ZM686.115 319.826a11.474 11.474 0 0 1-5.073-3.707 8.423 8.423 0 0 1-1.756-5.073 1.479 1.479 0 0 1 .39-.78 1.014 1.014 0 0 1 .78-.39h4.879a1.462 1.462 0 0 1 .975.195l.78.78a5.641 5.641 0 0 0 2.342 2.927 9.294 9.294 0 0 0 5.073 1.17c2.536 0 4.292-.39 5.463-1.17a4.024 4.024 0 0 0 1.951-3.317 3.231 3.231 0 0 0-.976-2.341 9.539 9.539 0 0 0-2.926-1.756c-1.366-.39-3.122-.976-5.658-1.756a23.862 23.862 0 0 1-9.17-3.903q-2.927-2.341-2.927-7.024a9.127 9.127 0 0 1 1.756-5.463 10.54 10.54 0 0 1 4.877-3.707 17.032 17.032 0 0 1 7.22-1.366 18.235 18.235 0 0 1 7.609 1.561 12.369 12.369 0 0 1 4.878 3.902 7.722 7.722 0 0 1 1.756 4.488 1.48 1.48 0 0 1-.39.78 1.014 1.014 0 0 1-.781.39h-5.073a1.545 1.545 0 0 1-1.56-.975 3.37 3.37 0 0 0-2.147-2.731 8.083 8.083 0 0 0-4.488-1.171 7.248 7.248 0 0 0-4.487 1.17 3.516 3.516 0 0 0-1.756 3.122 3.11 3.11 0 0 0 .78 2.342 9.456 9.456 0 0 0 2.537 1.756c1.17.39 2.926.975 5.268 1.56a48.3 48.3 0 0 1 7.414 2.342 9.959 9.959 0 0 1 4.097 3.317 10.3 10.3 0 0 1 1.366 5.073 8.505 8.505 0 0 1-1.951 5.853 13.795 13.795 0 0 1-5.268 3.902 24.183 24.183 0 0 1-7.804 1.366 23.557 23.557 0 0 1-8-1.366ZM723.381 320.216a1.49 1.49 0 0 1-.39-.975v-29.072h-9.756c-.39 0-.585-.195-.975-.39a1.49 1.49 0 0 1-.39-.976v-3.902a1.334 1.334 0 0 1 1.365-1.366h26.926a1.334 1.334 0 0 1 1.366 1.366v3.902a1.334 1.334 0 0 1-1.366 1.366h-9.756v29.072c0 .39-.195.585-.39.975a1.49 1.49 0 0 1-.976.39h-4.877c-.39 0-.586 0-.78-.39Z"/><path fill="#48dbc5" d="M565.536 391.042v44.485a5.038 5.038 0 0 1-5.073 5.073h-44.485a5.038 5.038 0 0 1-5.073-5.073v-44.485a5.038 5.038 0 0 1 5.073-5.073h44.485a5.303 5.303 0 0 1 5.073 5.073Z"/><path fill="#fff" d="M530.806 425.382a2.518 2.518 0 0 1-2.146-.976l-5.658-6.439a2.9 2.9 0 1 1 4.292-3.902l3.707 4.293 18.34-16a2.9 2.9 0 1 1 3.903 4.293l-20.487 17.95a3.467 3.467 0 0 1-1.95.78Z"/><path fill="#dde3ea" d="M775.086 394.359a3.497 3.497 0 0 1-3.512 3.512h-182.82a3.545 3.545 0 0 1-3.512-4.098 3.61 3.61 0 0 1 3.707-2.926h182.625a3.497 3.497 0 0 1 3.512 3.512ZM827.18 397.87h-16.194a3.512 3.512 0 0 1 0-7.023h16.195a3.61 3.61 0 0 1 3.707 2.926 3.808 3.808 0 0 1-3.707 4.098ZM826.986 412.114H721.04a3.497 3.497 0 0 0-3.512 3.512 3.497 3.497 0 0 0 3.512 3.512h106.14a3.545 3.545 0 0 0 3.513-4.097 3.76 3.76 0 0 0-3.707-2.927ZM640.069 412.114h-50.924a3.609 3.609 0 0 0-3.708 2.927 3.545 3.545 0 0 0 3.512 4.097h51.315a3.497 3.497 0 0 0 3.512-3.512 3.804 3.804 0 0 0-3.707-3.512ZM712.455 436.893a3.497 3.497 0 0 1-3.512 3.512H588.95a3.545 3.545 0 0 1-3.512-4.097 3.61 3.61 0 0 1 3.707-2.927h119.798a3.627 3.627 0 0 1 3.512 3.512ZM827.18 440.405h-37.266a3.512 3.512 0 0 1 0-7.024h37.072a3.61 3.61 0 0 1 3.707 2.927 3.653 3.653 0 0 1-3.512 4.097ZM781.915 436.893a3.497 3.497 0 0 1-3.512 3.512h-57.558a3.512 3.512 0 0 1 0-7.024h57.363a3.545 3.545 0 0 1 3.707 3.512ZM712.26 415.626a3.497 3.497 0 0 1-3.512 3.512h-57.363a3.512 3.512 0 0 1 0-7.024h57.363a3.497 3.497 0 0 1 3.512 3.512ZM804.548 394.359a3.497 3.497 0 0 1-3.512 3.512h-18.34a3.512 3.512 0 0 1 0-7.024h18.34a3.497 3.497 0 0 1 3.512 3.512Z"/><path fill="#a3caed" d="M565.536 481.574v44.485a5.038 5.038 0 0 1-5.073 5.073h-44.485a5.038 5.038 0 0 1-5.073-5.073v-44.485a5.038 5.038 0 0 1 5.073-5.073h44.485a5.165 5.165 0 0 1 5.073 5.073Z"/><path fill="#dde3ea" d="M775.086 484.89a3.497 3.497 0 0 1-3.512 3.513h-182.82a3.545 3.545 0 0 1-3.512-4.098 3.61 3.61 0 0 1 3.707-2.926h182.625a3.38 3.38 0 0 1 3.512 3.512ZM827.18 488.403h-16.194a3.512 3.512 0 0 1 0-7.024h16.195a3.61 3.61 0 0 1 3.707 2.926 3.925 3.925 0 0 1-3.707 4.098ZM826.986 502.45H721.04a3.497 3.497 0 0 0-3.512 3.513 3.497 3.497 0 0 0 3.512 3.512h106.14a3.545 3.545 0 0 0 3.513-4.098 3.76 3.76 0 0 0-3.707-2.926ZM640.069 502.45h-50.924a3.61 3.61 0 0 0-3.708 2.927 3.545 3.545 0 0 0 3.512 4.098h51.315a3.497 3.497 0 0 0 3.512-3.512 3.804 3.804 0 0 0-3.707-3.512ZM712.455 527.23a3.497 3.497 0 0 1-3.512 3.512H588.95a3.545 3.545 0 0 1-3.512-4.098 3.61 3.61 0 0 1 3.707-2.926h119.798a3.627 3.627 0 0 1 3.512 3.512ZM827.18 530.742h-37.266a3.512 3.512 0 0 1 0-7.024h37.072a3.61 3.61 0 0 1 3.707 2.926 3.653 3.653 0 0 1-3.512 4.098ZM781.915 527.23a3.497 3.497 0 0 1-3.512 3.512h-57.558a3.512 3.512 0 0 1 0-7.024h57.363a3.545 3.545 0 0 1 3.707 3.512ZM712.26 506.158a3.497 3.497 0 0 1-3.512 3.512h-57.363a3.512 3.512 0 0 1 0-7.024h57.363a3.497 3.497 0 0 1 3.512 3.512ZM804.548 484.89a3.497 3.497 0 0 1-3.512 3.513h-18.34a3.512 3.512 0 0 1 0-7.024h18.34a3.275 3.275 0 0 1 3.512 3.512Z"/><path fill="#48dbc5" d="M565.536 571.91v44.486a5.038 5.038 0 0 1-5.073 5.073h-44.485a5.038 5.038 0 0 1-5.073-5.073V571.91a5.038 5.038 0 0 1 5.073-5.073h44.485a5.303 5.303 0 0 1 5.073 5.073Z"/><path fill="#fff" d="M530.806 606.055a2.518 2.518 0 0 1-2.146-.976l-5.658-6.438a2.9 2.9 0 0 1 4.292-3.903l3.707 4.293 18.34-16a2.9 2.9 0 1 1 3.903 4.293l-20.487 17.95a2.505 2.505 0 0 1-1.95.78Z"/><path fill="#dde3ea" d="M775.086 575.227a3.497 3.497 0 0 1-3.512 3.512h-182.82a3.545 3.545 0 0 1-3.512-4.097 3.61 3.61 0 0 1 3.707-2.927h182.625a3.497 3.497 0 0 1 3.512 3.512ZM827.18 578.74h-16.194a3.512 3.512 0 0 1 0-7.025h16.195a3.61 3.61 0 0 1 3.707 2.927 3.925 3.925 0 0 1-3.707 4.097ZM826.986 592.787H721.04a3.497 3.497 0 0 0-3.512 3.512 3.497 3.497 0 0 0 3.512 3.512h106.14a3.545 3.545 0 0 0 3.513-4.097 3.977 3.977 0 0 0-3.707-2.927ZM640.069 592.787h-50.924a3.609 3.609 0 0 0-3.708 2.927 3.545 3.545 0 0 0 3.512 4.097h51.315a3.497 3.497 0 0 0 3.512-3.512 3.967 3.967 0 0 0-3.707-3.512ZM712.455 617.566a3.497 3.497 0 0 1-3.512 3.512H588.95a3.545 3.545 0 0 1-3.512-4.097 3.61 3.61 0 0 1 3.707-2.927h119.798a3.627 3.627 0 0 1 3.512 3.512ZM827.18 621.078h-37.266a3.512 3.512 0 0 1 0-7.024h37.072a3.61 3.61 0 0 1 3.707 2.927 3.557 3.557 0 0 1-3.512 4.097ZM781.915 617.566a3.497 3.497 0 0 1-3.512 3.512h-57.558a3.512 3.512 0 0 1 0-7.024h57.363a3.545 3.545 0 0 1 3.707 3.512ZM712.26 596.494a3.497 3.497 0 0 1-3.512 3.512h-57.363a3.512 3.512 0 1 1 0-7.024h57.363a3.497 3.497 0 0 1 3.512 3.512ZM804.548 575.227a3.497 3.497 0 0 1-3.512 3.512h-18.34a3.512 3.512 0 1 1 0-7.024h18.34a3.497 3.497 0 0 1 3.512 3.512Z"/><path fill="#a3caed" d="M565.536 662.247v44.485a5.038 5.038 0 0 1-5.073 5.073h-44.485a5.038 5.038 0 0 1-5.073-5.073v-44.485a5.038 5.038 0 0 1 5.073-5.073h44.485a5.303 5.303 0 0 1 5.073 5.073Z"/><path fill="#dde3ea" d="M775.086 665.564a3.497 3.497 0 0 1-3.512 3.512h-182.82a3.545 3.545 0 0 1-3.512-4.098 3.61 3.61 0 0 1 3.707-2.926h182.625a3.497 3.497 0 0 1 3.512 3.512ZM827.18 669.076h-16.194a3.512 3.512 0 1 1 0-7.024h16.195a3.61 3.61 0 0 1 3.707 2.926 3.808 3.808 0 0 1-3.707 4.098ZM826.986 683.319H721.04a3.497 3.497 0 0 0-3.512 3.512 3.497 3.497 0 0 0 3.512 3.512h106.14a3.545 3.545 0 0 0 3.513-4.097 3.76 3.76 0 0 0-3.707-2.927ZM640.069 683.319h-50.924a3.609 3.609 0 0 0-3.708 2.927 3.545 3.545 0 0 0 3.512 4.097h51.315a3.497 3.497 0 0 0 3.512-3.512 3.804 3.804 0 0 0-3.707-3.512ZM712.455 708.098a3.497 3.497 0 0 1-3.512 3.512H588.95a3.545 3.545 0 0 1-3.512-4.097 3.61 3.61 0 0 1 3.707-2.927h119.798a3.627 3.627 0 0 1 3.512 3.512ZM827.18 711.61h-37.266a3.512 3.512 0 0 1 0-7.024h37.072a3.61 3.61 0 0 1 3.707 2.927 3.653 3.653 0 0 1-3.512 4.097ZM781.915 708.098a3.497 3.497 0 0 1-3.512 3.512h-57.558a3.512 3.512 0 0 1 0-7.024h57.363a3.545 3.545 0 0 1 3.707 3.512ZM712.26 686.831a3.497 3.497 0 0 1-3.512 3.512h-57.363a3.512 3.512 0 1 1 0-7.024h57.363a3.497 3.497 0 0 1 3.512 3.512ZM804.548 665.564a3.497 3.497 0 0 1-3.512 3.512h-18.34a3.512 3.512 0 1 1 0-7.024h18.34a3.497 3.497 0 0 1 3.512 3.512Z"/><path fill="#464ae4" d="M967.27 870.236a12.74 12.74 0 0 0 .586 3.317 1.237 1.237 0 0 0 1.17.975h57.363a1.25 1.25 0 0 0 1.171-1.56l-2.146-9.366-7.024-29.852-22.828 2.341s1.756 13.463-16.194 18.536c-11.122 3.122-12.487 10.731-12.097 15.609Z"/><path fill="#2624bd" d="M988.928 849.944c7.61-6.048 6.634-13.853 6.634-13.853l22.828-2.341 3.902 16.39h-33.364Z"/><path fill="#464ae4" d="M871.08 870.236a12.74 12.74 0 0 0 .586 3.317 1.237 1.237 0 0 0 1.17.975H930.2a1.25 1.25 0 0 0 1.17-1.56l-2.146-9.366-7.024-29.852-22.828 2.341s1.756 13.463-16.194 18.536c-11.122 3.122-12.487 10.731-12.097 15.609Z"/><path fill="#2624bd" d="M892.738 849.944c7.61-6.048 6.634-13.853 6.634-13.853l22.828-2.341 3.902 16.39h-33.364Z"/><path fill="#292561" d="M869.91 839.603h80.19c1.172-6.243.781-15.218-.39-24.974a284.23 284.23 0 0 0-6.633-34.535.717.717 0 0 0-.195-.585c-.195-.78-.39-1.756-.586-2.536a114.308 114.308 0 0 1-1.756-12.878c-2.34-28.291 3.122-65.948 8.39-93.849.195-.975.39-1.756.586-2.731 4.292-23.023 10.34-48.778 16.194-71.606a14.376 14.376 0 0 1 .78-2.732c2.927-11.121 4.878-17.755 4.878-17.755-7.414-.39 26.925 1.561-72.582-3.902 0 0-1.95 12.097-5.072 31.218-.196.78-.196 1.756-.39 2.731-8.78 55.802-23.024 156.87-23.804 213.257v2.732a178.28 178.28 0 0 0 .39 18.145Z"/><path fill="#191937" d="M928.248 705.757c.976 11.316.586 22.633 2.342 33.95 1.366 8.78 4.487 17.754 9.95 24.388-.585-6.244-.585-13.072-.585-20.291v-2.732c.39-9.365 1.17-19.511 2.342-29.852-4.683-22.828-6.44-45.461-7.024-68.874-.39-10.731-.586-21.463-.976-32.194-.195-8.194.976-25.56 1.56-33.559-9.95 13.463-17.95 39.217-18.73 55.802-.975 24.779 8.78 48.778 11.121 73.362Z"/><path fill="#292561" d="M932.736 663.027c3.902 18.536 21.462 109.263 29.072 147.505.585 3.121 5.073 25.56 6.048 28.876 0 .195 0 .195.195.39h70.24a101.656 101.656 0 0 0 3.512-12.292l.586-2.926c3.512-23.414-4.098-46.047-16.39-66.143-8.975-15.024-21.267-73.362-24.779-90.337-.585-2.926-4.487-21.462-8.975-47.022-1.756-9.755-3.122-18.73-4.293-25.95a13.426 13.426 0 0 1-.39-2.536 1912.595 1912.595 0 0 0-2.926-17.755l-50.144-32.584c0 .195-3.512 25.56-4.878 55.997a13.821 13.821 0 0 1-.195 2.732c-.585 18.926-.585 43.51 3.317 62.045Z"/><path fill="#ffd1c4" d="M788.939 465.184s-22.633-34.144-34.145-12.877 26.34 26.34 26.34 26.34Z"/><path fill="#fcc800" d="M907.957 497.768s-19.511 18.73-38.047 28.876c-6.634 3.708-13.267 6.244-18.73 6.44-20.682.78-78.24-51.51-78.24-51.51l15.999-21.072 61.655 36.68c18.536-28.876 55.607-41.363 55.607-41.363l.585 14.633Z"/><path fill="#e3b400" d="M907.957 497.768s-19.511 18.73-38.047 28.876c.78-.975 1.756-1.95 2.536-2.926a51.751 51.751 0 0 0 12.292-22.438c1.561-6.634 1.952-13.658 3.122-20.487.976-5.463 5.854-22.438 14.439-15.414a20.826 20.826 0 0 1 4.292 4.878Z"/><path fill="#fcc800" d="M990.489 579.91c0 5.268-13.268 8.585-30.047 9.95-28.096 2.147-65.558-1.17-65.558-9.95 1.951-32.779-11.511-98.141 2.147-117.652 9.95-14.439 69.46-15.024 87.605.78 5.658 4.878 6.633 14.633 5.853 27.12-.585 11.122-2.536 24.39-3.902 38.242-3.122 34.145 3.902 51.51 3.902 51.51Z"/><path fill="#e3b400" d="M990.489 579.91c0 5.268-13.268 8.585-30.047 9.95a23.663 23.663 0 0 0 .975-2.731c3.317-8 7.805-15.219 11.317-23.023s6.243-16.194 5.853-24.78c-.39-7.804-3.512-15.023-6.438-22.242s-5.854-14.633-6.049-22.438a24.844 24.844 0 0 1 5.463-16.78c1.756-1.95 3.902-4.682 6.634-3.902 2.731.976 4.878 4.683 6.244 7.024 1.95 3.122 3.707 6.244 5.463 9.366-.586 11.121-2.537 24.389-3.903 38.242-2.536 33.949 4.488 51.314 4.488 51.314Z"/><path fill="#ffd1c4" d="m927.468 454.453-1.17-10.34s-11.317 2.536-17.56-1.171c-6.05-3.708-11.512-46.242 1.365-50.925 20.877-7.609 35.315 0 37.462 12.683s-1.366 31.608-1.366 31.608l3.122 17.17c0 2.536-22.048 3.512-21.853.975Z"/><path fill="#7c3a3a" d="M946.784 440.99s-7.024 2.342-5.268-8 6.829-17.364 1.951-19.705c-5.073-2.342-6.048 5.463-6.048 5.463s-2.342-3.707-1.366-9.951c0 0-51.314 2.536-46.242-22.633s47.217-3.512 52.68-4.487c15.414-2.927 26.146 39.022 4.293 59.313Z"/><path fill="#f1c0ba" d="M926.297 444.112s11.122-2.146 13.268-6.829c0 0-5.658 10.536-12.487 12.097Z"/><path fill="#fcc800" d="M1072.24 525.474s-56.777 24.779-70.24 18.535-55.606-58.533-31.412-87.02v-.975s30.047 6.634 52.29 62.045l47.607-10.73Z"/><path fill="#fa5814" d="m1068.924 806.24-53.656-4.488 27.901-327.983 2.927-33.364a10.158 10.158 0 0 1 11.121-9.365l33.17 2.731a10.157 10.157 0 0 1 9.365 11.122l-3.122 37.07Z"/><path fill="#ffd1c4" d="m1068.924 806.24-21.267 46.046-9.951 21.267c-.78 1.56-2.536 1.56-3.122-.195l-5.463-20.487-13.853-51.12Z"/><path fill="#d9e9fd" d="m1096.63 481.964-53.07-3.707-.196-4.683 2.927-33.364a10.158 10.158 0 0 1 11.121-9.365l33.17 2.731a10.157 10.157 0 0 1 9.365 11.122Z"/><path fill="#191937" d="m1047.657 852.09-9.951 21.268c-.78 1.56-2.536 1.56-3.122-.196l-5.463-20.486Z"/></g></svg>